# xmcd
#
# Track frame offsets: 
#        150
#        15748
#        26439
#        44761
#        64287
#        85623
#        101099
#        122200
#        146481
#        164272
#        183048
#        224068
#
# Disc length: 3191 seconds
#
# Revision: 3
# Processed by: cddbd v1.5.2PL0 Copyright (c) Steve Scherf et al.
# Submitted via: ExactAudioCopy v0.99pb3
#
DISCID=a90c750c
DTITLE=Didier Squiban - La plage
DYEAR=2006
DGENRE=Jazz
TTITLE0=Quatuor les sept iles - Jantilez  (l'île aux moines)
TTITLE1=Quatuor les sept iles - Kostan (les costans)
TTITLE2=Quatuor les sept iles - Enez Plat (l'île plate)
TTITLE3=Quatuor les sept iles - Ar zer du, ar zer vras (le cerf)
TTITLE4=Quatuor les sept iles - Enez Mellban (malban)
TTITLE5=Quatuor les sept iles - Enez Bonno (bono)
TTITLE6=Quatuor les sept iles - Riouzig (rouzig)
TTITLE7=Suite Marine - La plage
TTITLE8=Suite Marine - Le café de l'ancre
TTITLE9=Suite Marine - Petit air marin
TTITLE10=Sonate en trio - Da lec'h all  (maro, tri men, nominoë)
TTITLE11=Sonate en trio - CODA
EXTD=YEAR: 2006
EXTT0=
EXTT1=
EXTT2=
EXTT3=
EXTT4=
EXTT5=
EXTT6=
EXTT7=
EXTT8=
EXTT9=
EXTT10=
EXTT11=
PLAYORDER=
